<mxfile host="Electron" agent="Mozilla/5.0 (Windows NT 10.0; Win64; x64) AppleWebKit/537.36 (KHTML, like Gecko) draw.io/27.0.9 Chrome/134.0.6998.205 Electron/35.4.0 Safari/537.36" version="27.0.9">
  <diagram name="Page-1" id="23EsZI25aLsFjHE-hmSU">
    <mxGraphModel dx="1426" dy="841" grid="1" gridSize="10" guides="1" tooltips="1" connect="1" arrows="1" fold="1" page="1" pageScale="1" pageWidth="850" pageHeight="1100" math="0" shadow="0">
      <root>
        <mxCell id="0" />
        <mxCell id="1" parent="0" />
        <mxCell id="kMABZo2IpBi1ktr7wsGz-1" value="User" style="shape=umlActor;verticalLabelPosition=bottom;verticalAlign=top;html=1;outlineConnect=0;" vertex="1" parent="1">
          <mxGeometry x="30" y="150" width="30" height="60" as="geometry" />
        </mxCell>
        <mxCell id="kMABZo2IpBi1ktr7wsGz-2" value="" style="html=1;points=[[0,0,0,0,5],[0,1,0,0,-5],[1,0,0,0,5],[1,1,0,0,-5]];perimeter=orthogonalPerimeter;outlineConnect=0;targetShapes=umlLifeline;portConstraint=eastwest;newEdgeStyle={&quot;curved&quot;:0,&quot;rounded&quot;:0};" vertex="1" parent="1">
          <mxGeometry x="40" y="240" width="10" height="310" as="geometry" />
        </mxCell>
        <mxCell id="kMABZo2IpBi1ktr7wsGz-3" value="" style="endArrow=classic;html=1;rounded=0;entryX=0;entryY=0;entryDx=0;entryDy=5;entryPerimeter=0;" edge="1" parent="1" source="kMABZo2IpBi1ktr7wsGz-2" target="kMABZo2IpBi1ktr7wsGz-9">
          <mxGeometry width="50" height="50" relative="1" as="geometry">
            <mxPoint x="321" y="390" as="sourcePoint" />
            <mxPoint x="212" y="260" as="targetPoint" />
          </mxGeometry>
        </mxCell>
        <mxCell id="kMABZo2IpBi1ktr7wsGz-4" value="1. POST /weather/dump" style="edgeLabel;html=1;align=center;verticalAlign=middle;resizable=0;points=[];" vertex="1" connectable="0" parent="kMABZo2IpBi1ktr7wsGz-3">
          <mxGeometry x="-0.2795" y="3" relative="1" as="geometry">
            <mxPoint x="23" y="-12" as="offset" />
          </mxGeometry>
        </mxCell>
        <mxCell id="kMABZo2IpBi1ktr7wsGz-5" value="WeatherService" style="rounded=0;whiteSpace=wrap;html=1;" vertex="1" parent="1">
          <mxGeometry x="177" y="150" width="120" height="60" as="geometry" />
        </mxCell>
        <mxCell id="kMABZo2IpBi1ktr7wsGz-8" value="DB" style="shape=cylinder3;whiteSpace=wrap;html=1;boundedLbl=1;backgroundOutline=1;size=15;" vertex="1" parent="1">
          <mxGeometry x="450" y="140" width="60" height="80" as="geometry" />
        </mxCell>
        <mxCell id="kMABZo2IpBi1ktr7wsGz-9" value="" style="html=1;points=[[0,0,0,0,5],[0,1,0,0,-5],[1,0,0,0,5],[1,1,0,0,-5]];perimeter=orthogonalPerimeter;outlineConnect=0;targetShapes=umlLifeline;portConstraint=eastwest;newEdgeStyle={&quot;curved&quot;:0,&quot;rounded&quot;:0};" vertex="1" parent="1">
          <mxGeometry x="232" y="260" width="10" height="270" as="geometry" />
        </mxCell>
        <mxCell id="kMABZo2IpBi1ktr7wsGz-12" value="" style="html=1;points=[[0,0,0,0,5],[0,1,0,0,-5],[1,0,0,0,5],[1,1,0,0,-5]];perimeter=orthogonalPerimeter;outlineConnect=0;targetShapes=umlLifeline;portConstraint=eastwest;newEdgeStyle={&quot;curved&quot;:0,&quot;rounded&quot;:0};" vertex="1" parent="1">
          <mxGeometry x="475" y="280" width="10" height="70" as="geometry" />
        </mxCell>
        <mxCell id="kMABZo2IpBi1ktr7wsGz-13" value="" style="endArrow=classic;html=1;rounded=0;entryX=0;entryY=0;entryDx=0;entryDy=5;entryPerimeter=0;" edge="1" parent="1" source="kMABZo2IpBi1ktr7wsGz-9" target="kMABZo2IpBi1ktr7wsGz-33">
          <mxGeometry width="50" height="50" relative="1" as="geometry">
            <mxPoint x="340" y="440" as="sourcePoint" />
            <mxPoint x="630" y="430" as="targetPoint" />
          </mxGeometry>
        </mxCell>
        <mxCell id="kMABZo2IpBi1ktr7wsGz-14" value="4. saveFile(&quot;dump_[timestamp].json&quot;, data)" style="edgeLabel;html=1;align=center;verticalAlign=middle;resizable=0;points=[];" vertex="1" connectable="0" parent="kMABZo2IpBi1ktr7wsGz-13">
          <mxGeometry x="-0.3576" y="1" relative="1" as="geometry">
            <mxPoint x="76" y="-19" as="offset" />
          </mxGeometry>
        </mxCell>
        <mxCell id="kMABZo2IpBi1ktr7wsGz-19" value="" style="endArrow=classic;html=1;rounded=0;dashed=1;exitX=0.5;exitY=0.788;exitDx=0;exitDy=0;exitPerimeter=0;" edge="1" parent="1" source="kMABZo2IpBi1ktr7wsGz-33" target="kMABZo2IpBi1ktr7wsGz-9">
          <mxGeometry width="50" height="50" relative="1" as="geometry">
            <mxPoint x="407" y="466" as="sourcePoint" />
            <mxPoint x="242" y="466" as="targetPoint" />
          </mxGeometry>
        </mxCell>
        <mxCell id="kMABZo2IpBi1ktr7wsGz-20" value="5. OK" style="edgeLabel;html=1;align=center;verticalAlign=middle;resizable=0;points=[];" vertex="1" connectable="0" parent="kMABZo2IpBi1ktr7wsGz-19">
          <mxGeometry x="0.6121" y="3" relative="1" as="geometry">
            <mxPoint x="132" y="-13" as="offset" />
          </mxGeometry>
        </mxCell>
        <mxCell id="kMABZo2IpBi1ktr7wsGz-21" value="" style="endArrow=classic;html=1;rounded=0;entryX=0;entryY=0;entryDx=0;entryDy=5;entryPerimeter=0;" edge="1" parent="1" source="kMABZo2IpBi1ktr7wsGz-9" target="kMABZo2IpBi1ktr7wsGz-12">
          <mxGeometry width="50" height="50" relative="1" as="geometry">
            <mxPoint x="692" y="520" as="sourcePoint" />
            <mxPoint x="742" y="470" as="targetPoint" />
          </mxGeometry>
        </mxCell>
        <mxCell id="kMABZo2IpBi1ktr7wsGz-22" value="2. getAllQueries()" style="edgeLabel;html=1;align=center;verticalAlign=middle;resizable=0;points=[];" vertex="1" connectable="0" parent="kMABZo2IpBi1ktr7wsGz-21">
          <mxGeometry x="-0.1327" y="1" relative="1" as="geometry">
            <mxPoint x="7" y="-14" as="offset" />
          </mxGeometry>
        </mxCell>
        <mxCell id="kMABZo2IpBi1ktr7wsGz-23" value="" style="endArrow=classic;html=1;rounded=0;exitX=0;exitY=1;exitDx=0;exitDy=-5;exitPerimeter=0;dashed=1;" edge="1" parent="1" source="kMABZo2IpBi1ktr7wsGz-12" target="kMABZo2IpBi1ktr7wsGz-9">
          <mxGeometry width="50" height="50" relative="1" as="geometry">
            <mxPoint x="692" y="520" as="sourcePoint" />
            <mxPoint x="742" y="470" as="targetPoint" />
          </mxGeometry>
        </mxCell>
        <mxCell id="kMABZo2IpBi1ktr7wsGz-24" value="3. [record1, record2, ...]" style="edgeLabel;html=1;align=center;verticalAlign=middle;resizable=0;points=[];" vertex="1" connectable="0" parent="kMABZo2IpBi1ktr7wsGz-23">
          <mxGeometry x="0.0416" y="-1" relative="1" as="geometry">
            <mxPoint x="6" y="-14" as="offset" />
          </mxGeometry>
        </mxCell>
        <mxCell id="kMABZo2IpBi1ktr7wsGz-25" value="" style="endArrow=classic;html=1;rounded=0;exitX=0;exitY=1;exitDx=0;exitDy=-5;exitPerimeter=0;" edge="1" parent="1" source="kMABZo2IpBi1ktr7wsGz-9" target="kMABZo2IpBi1ktr7wsGz-2">
          <mxGeometry width="50" height="50" relative="1" as="geometry">
            <mxPoint x="692" y="520" as="sourcePoint" />
            <mxPoint x="50" y="530" as="targetPoint" />
          </mxGeometry>
        </mxCell>
        <mxCell id="kMABZo2IpBi1ktr7wsGz-26" value="6. 202 Accepted (&quot;dump started...&quot;)" style="edgeLabel;html=1;align=center;verticalAlign=middle;resizable=0;points=[];" vertex="1" connectable="0" parent="kMABZo2IpBi1ktr7wsGz-25">
          <mxGeometry x="0.2671" y="1" relative="1" as="geometry">
            <mxPoint x="22" y="-16" as="offset" />
          </mxGeometry>
        </mxCell>
        <mxCell id="kMABZo2IpBi1ktr7wsGz-27" value="" style="endArrow=none;dashed=1;html=1;dashPattern=1 3;strokeWidth=2;rounded=0;" edge="1" parent="1" source="kMABZo2IpBi1ktr7wsGz-12" target="kMABZo2IpBi1ktr7wsGz-8">
          <mxGeometry width="50" height="50" relative="1" as="geometry">
            <mxPoint x="692" y="520" as="sourcePoint" />
            <mxPoint x="742" y="470" as="targetPoint" />
          </mxGeometry>
        </mxCell>
        <mxCell id="kMABZo2IpBi1ktr7wsGz-30" value="" style="endArrow=none;dashed=1;html=1;dashPattern=1 3;strokeWidth=2;rounded=0;" edge="1" parent="1" source="kMABZo2IpBi1ktr7wsGz-9" target="kMABZo2IpBi1ktr7wsGz-5">
          <mxGeometry width="50" height="50" relative="1" as="geometry">
            <mxPoint x="692" y="520" as="sourcePoint" />
            <mxPoint x="742" y="470" as="targetPoint" />
          </mxGeometry>
        </mxCell>
        <mxCell id="kMABZo2IpBi1ktr7wsGz-32" value="FileSystem" style="rounded=0;whiteSpace=wrap;html=1;" vertex="1" parent="1">
          <mxGeometry x="630" y="150" width="120" height="60" as="geometry" />
        </mxCell>
        <mxCell id="kMABZo2IpBi1ktr7wsGz-33" value="" style="html=1;points=[[0,0,0,0,5],[0,1,0,0,-5],[1,0,0,0,5],[1,1,0,0,-5]];perimeter=orthogonalPerimeter;outlineConnect=0;targetShapes=umlLifeline;portConstraint=eastwest;newEdgeStyle={&quot;curved&quot;:0,&quot;rounded&quot;:0};" vertex="1" parent="1">
          <mxGeometry x="685" y="409" width="10" height="80" as="geometry" />
        </mxCell>
        <mxCell id="kMABZo2IpBi1ktr7wsGz-34" value="" style="endArrow=none;dashed=1;html=1;dashPattern=1 3;strokeWidth=2;rounded=0;" edge="1" parent="1" source="kMABZo2IpBi1ktr7wsGz-33" target="kMABZo2IpBi1ktr7wsGz-32">
          <mxGeometry width="50" height="50" relative="1" as="geometry">
            <mxPoint x="620" y="310" as="sourcePoint" />
            <mxPoint x="620" y="250" as="targetPoint" />
          </mxGeometry>
        </mxCell>
      </root>
    </mxGraphModel>
  </diagram>
</mxfile>
